<svg width="24" height="25" viewBox="0 0 24 25" fill="none" xmlns="http://www.w3.org/2000/svg">
<g clip-path="url(#clip0_40_970)">
<path d="M18.6875 0L24 5.53385V22.2005C24 22.9818 23.7396 23.6437 23.2188 24.1862C22.6979 24.7287 22.0625 25 21.3125 25H2.6875C1.9375 25 1.30208 24.7287 0.78125 24.1862C0.260417 23.6437 0 22.9818 0 22.2005V2.79948C0 2.01823 0.260417 1.35634 0.78125 0.813802C1.30208 0.271267 1.9375 0 2.6875 0H18.6875ZM12 22.2005C13.125 22.2005 14.0729 21.799 14.8438 20.9961C15.6146 20.1931 16 19.2166 16 18.0664C16 16.9162 15.6146 15.9288 14.8438 15.1042C14.0729 14.2795 13.125 13.8672 12 13.8672C10.875 13.8672 9.92708 14.2795 9.15625 15.1042C8.38542 15.9288 8 16.9162 8 18.0664C8 19.2166 8.38542 20.1931 9.15625 20.9961C9.92708 21.799 10.875 22.2005 12 22.2005ZM16 8.33333V2.79948H2.6875V8.33333H16Z" fill="white"/>
</g>
<defs>
<clipPath id="clip0_40_970">
<rect width="24" height="25" fill="white"/>
</clipPath>
</defs>
</svg>
